# xmcd CD database file
#
# Track frame offsets:
#	150
#	22100
#	32955
#	39062
#	48130
#	55730
#	63147
#	68440
#	82482
#	96095
#	118747
#	124747
#	138990
#	142797
#	159290
#	172727
#	188202
#	193847
#	199960
#	209897
#
# Disc length: 3119 seconds
#
# Revision: 2
# Processed by: cddbd v1.5.2PL0 Copyright (c) Steve Scherf et al.
# Submitted via: CDex 1.70beta2
#
DISCID=1a0c2d14
DTITLE=鷺巣 詩郎 - ふしぎの海のナディア ★劇場用オリジナル版★
DYEAR=1991
DGENRE=Anime
TTITLE0=松下 里美/微笑みがいつか
TTITLE1=悪夢
TTITLE2=ナディアの闘い
TTITLE3=ファジーの秘密
TTITLE4=忍足
TTITLE5=傷心
TTITLE6=激しい攻撃
TTITLE7=壮絶な先頭
TTITLE8=青い風
TTITLE9=松下 里美/愛はどこへゆくの
TTITLE10=黒い力
TTITLE11=ギーガの野望
TTITLE12=人造人間
TTITLE13=ロンドンの街
TTITLE14=襲いかかる危機
TTITLE15=女流ジャーナリスト
TTITLE16=不安
TTITLE17=神秘の宇宙
TTITLE18=微笑みがいつか(インスト)
TTITLE19=SILK/My Precious Trick Star
EXTD=YEAR: 1991
EXTT0=
EXTT1=
EXTT2=
EXTT3=
EXTT4=
EXTT5=
EXTT6=
EXTT7=
EXTT8=
EXTT9=
EXTT10=
EXTT11=
EXTT12=
EXTT13=
EXTT14=
EXTT15=
EXTT16=
EXTT17=
EXTT18=
EXTT19=
PLAYORDER=
